<svg width="1000" height="1000" viewBox="0 0 1000 1000" fill="none" xmlns="http://www.w3.org/2000/svg">
<path d="M520.833 416.667C520.833 347.917 464.583 291.667 395.833 291.667C327.083 291.667 270.833 347.917 270.833 416.667C270.833 485.417 327.083 541.667 395.833 541.667C464.583 541.667 520.833 485.417 520.833 416.667ZM395.833 458.333C372.917 458.333 354.167 439.583 354.167 416.667C354.167 393.75 372.917 375 395.833 375C418.75 375 437.5 393.75 437.5 416.667C437.5 439.583 418.75 458.333 395.833 458.333ZM666.667 541.667C712.917 541.667 750 504.583 750 458.333C750 412.083 712.917 375 666.667 375C620.417 375 582.917 412.083 583.333 458.333C583.333 504.583 620.417 541.667 666.667 541.667ZM499.583 83.75C269.583 83.75 82.9167 270.417 82.9167 500.417C82.9167 730.417 269.583 917.083 499.583 917.083C729.583 917.083 916.25 730.417 916.25 500.417C916.25 270.417 729.583 83.75 499.583 83.75V83.75ZM243.333 713.333C271.667 690.833 337.917 667.083 395.833 667.083C398.75 667.083 402.083 667.5 405.417 667.5C415.417 640.833 433.333 613.75 459.583 590C436.25 585.833 414.167 583.333 395.833 583.333C341.667 583.333 254.583 602.083 198.75 642.917C177.917 599.583 166.25 551.25 166.25 500C166.25 316.25 315.833 166.667 499.583 166.667C683.333 166.667 832.917 316.25 832.917 500C832.917 550 821.667 597.5 801.667 640.417C760 615.833 703.333 604.167 666.667 604.167C603.333 604.167 479.167 637.917 479.167 716.667V832.5C384.583 827.083 300.417 782.083 243.333 713.333V713.333Z" fill="#B66DFF"/>
</svg>
